<?xml version="1.0" encoding="UTF-8" standalone="no"?>
<!-- Created with Inkscape (http://www.inkscape.org/) -->

<svg
   xmlns:dc="http://purl.org/dc/elements/1.1/"
   xmlns:cc="http://creativecommons.org/ns#"
   xmlns:rdf="http://www.w3.org/1999/02/22-rdf-syntax-ns#"
   xmlns:svg="http://www.w3.org/2000/svg"
   xmlns="http://www.w3.org/2000/svg"
   xmlns:inkscape="http://www.inkscape.org/namespaces/inkscape"
   version="1.1"
   width="861.25"
   height="677.5"
   id="svg2"
   xml:space="preserve"><metadata
     id="metadata8"><rdf:RDF><cc:Work
         rdf:about=""><dc:format>image/svg+xml</dc:format><dc:type
           rdf:resource="http://purl.org/dc/dcmitype/StillImage" /></cc:Work></rdf:RDF></metadata><defs
     id="defs6" /><g
     transform="matrix(1.25,0,0,-1.25,0,677.5)"
     id="g10"><g
       transform="scale(0.1,0.1)"
       id="g12"><path
         d="m 3751.78,45.9336 c -9.57,113.9644 -169.83,251.3864 -384.44,371.2114 -132.61,182.714 -322.45,654.865 90.41,856.055 90.36,44.03 133.58,52.1 186.61,72.02 31.78,11.94 67.08,41.56 118.21,48.29 -61.72,-211.03 -117.04,-424.264 -95.68,-646.014 8.17,-84.934 40.52,-164.32 70.7,-247.918 l -84.14,-90.617 105.79,27.43 c 1.39,-4.356 2.75,-8.731 4.09,-13.121 l -151.68,-108.344 171.61,25.234 c 5.94,-75.18 -42.72,-189.371 -26.01,-251.203 88.72,-88.749969 545.99,-54.8359 650.39,22.133 22.16,230.976 -259.18,327.637 -423.62,347.25 -144.01,220.039 -105.44,461.199 -6.1,689.96 65.9,151.68 166.83,285.2 231.69,437.28 130.69,306.29 171.68,646 299.22,955.05 79.93,193.74 165.9,453.14 402.1,493.92 -48,-475.29 88.99,-973.66 616.92,-1065.18 699.47,-121.32 1338.39,758.24 530.15,1174.11 -12.56,6.45 -269.13,651.34 -394.46,923.18 l 195.61,-51.78 -231.78,146.2 c 38.17,-0.39 150.71,-28.06 173.53,-24.46 5.22,19.58 -95.61,76.12 -91.65,95.68 774.61,-135.4 1135.89,17.25 1175.63,98.02 62.34,126.84 -648.59,284.8 -1214.34,176.74 l 123.77,129.4 -207.76,-112.68 c 32.78,53.99 97.54,142.6 93.69,157.04 -104.39,5.22 -234.57,-154.89 -328.56,-197.95 -3.91,13.04 155.71,192.42 150.49,205.47 -18.26,0 -331.96,-208.1 -350.24,-208.12 18.33,0.15 328.24,288.53 410.66,367.2 110.84,105.79 219.97,219.92 293.75,355.43 34.81,63.99 61.7,133.86 61.7,207.85 -438.43,-75.86 -1166.9,-530.79 -1255.13,-1155.59 -36.91,-4.62 -179.3,-76.66 -184.96,-119.83 7.86,-6.52 114.21,-43.92 122.02,-51.74 -60.3,-23.65 -221.92,-38.13 -228.02,-71.79 -3.62,-20.19 137,-47.29 141.94,-87.42 -110.94,-6.53 -233.3,11.69 -276.42,-79.13 14.36,-13.04 149.8,-55.28 162.84,-69.63 -100.49,-13.05 -236.08,20.96 -300.78,-94.36 14.36,-13.05 124.61,-36.14 137.7,-50.5 -66.56,-27.41 -174.76,7.52 -204.79,-57.72 7.86,-15.66 88.62,-70.16 96.44,-87.13 -48.24,-14.36 -155.67,-15.24 -203.96,-30.88 -17.33,-37.57 84.03,-85.81 91.99,-103.02 -53.51,-14.36 -193.36,-57 -248.14,-72.66 -10.45,-31.32 86.03,-64.35 74.32,-96.97 -52.89,-3.9 -157.97,-32.47 -181.84,-57.19 -17.24,-17.81 61.43,-50.42 94.43,-87.89 -963.77,-673.57 -685.45,-34.12 -1432.93,4.98 -626.91,0 -859.31,-600.65 -971.46,-959.38 -74.55,-238.51 -361.282,-413.9 -713.489,-413.9 C 603.023,1806.58 449.164,2095.56 9.83203,1868.1 319.961,1401.57 1176.93,1443.79 1517.49,2096.3 c 81.86,-164.72 -84.44,-425.76 -161.28,-764.33 -43.19,-190.34 -31.1,-432.146 -13.97,-611.97 l -103.48,-111.441 112.03,29.046 c 0.45,-4.14 0.91,-8.207 1.37,-12.234 l -155.19,-110.848 157.38,23.145 c -10.59,-136.195 -76.83,-283.578 -76.83,-328.609 95.78,-95.77 551.73,-116.2778 666.85,-58.731 9.13,195.742 -184,322.336 -335.38,417.602 -72.87,45.847 -96.95,287.808 -99.12,366.015 -5.61,201.985 320.8,554.975 308.63,573.245 73.07,-109.61 58,-84.5 184.59,-211.09 31.3,-122.98 -17.99,-234.28 16.57,-376.116 26.76,-109.922 81.79,-230.672 128.63,-343.425 l -52.75,-56.809 68.71,17.812 c 3.46,-8.624 6.85,-17.183 10.14,-25.671 l -120.64,-86.18 144.28,21.219 c 10.89,-32.59 19.52,-63.637 24.76,-92.559 9.53,-52.605 -25.18,-132.461 -20.04,-181.855 65.25,-54.801 424.07,-45.684 533.72,-45.684 103.56,0 -65.31,220.566 -76.94,232.063 -75.35,74.578 -193.48,91.917 -274.6,161.089 -125.27,106.805 -187.13,624.566 -32.11,599.946 301.69,-48 489.62,-26.07 709.91,49.58 2.98,-116.47 -53.39,-191.994 -57.77,-281.545 -6.91,-141.457 25.11,-281.649 82.58,-456.477 l -82.98,-89.363 104.03,26.969 c 1.54,-4.473 3.11,-8.989 4.68,-13.508 l -150.5,-107.5 152.12,22.371 C 3071.91,99.1055 3072.27,94.9961 3077.08,42.0273 3334.41,-28.168 3547.77,9.625 3751.78,45.9336"
         inkscape:connector-curvature="0"
         id="path14"
         style="fill:#231f20;fill-opacity:1;fill-rule:evenodd;stroke:none" /><path
         d="m 5960.08,2118.46 c -227.25,7.26 -372.9,41.46 -537.84,146.83 -225.98,144.35 -333.3,390.55 -333.3,706.27 35.35,35.32 12.79,-224.78 177.19,-425.14 225.3,-274.63 715.77,-501.98 973.83,-181.67 451.66,685 -838.03,1086.73 -1290.62,685.1 -45.46,-1249.91 1064.4,-966.57 1010.74,-931.39"
         inkscape:connector-curvature="0"
         id="path16"
         style="fill:#ffffff;fill-opacity:1;fill-rule:evenodd;stroke:none" /><path
         d="m 6209.64,2391.44 c 45.6,0.95 105.18,152.88 85.69,254 -178.08,0 -262.26,-227.51 -85.69,-254"
         inkscape:connector-curvature="0"
         id="path18"
         style="fill:#231f20;fill-opacity:1;fill-rule:evenodd;stroke:none" /><path
         d="m 5774.58,2524.47 c 57.32,109.42 75.34,227.95 -45.17,279.66 -433.93,175.92 -119.68,-237.91 45.17,-279.66"
         inkscape:connector-curvature="0"
         id="path20"
         style="fill:#231f20;fill-opacity:1;fill-rule:evenodd;stroke:none" /><path
         d="m 5164.33,3909.77 c -122.22,0 -221.88,-103.8 -221.88,-231.1 0,-127.28 99.66,-231.1 221.88,-231.1 122.17,0 221.82,103.82 221.82,231.1 0,127.3 -99.65,231.1 -221.82,231.1"
         inkscape:connector-curvature="0"
         id="path22"
         style="fill:#ffffff;fill-opacity:1;fill-rule:evenodd;stroke:none" /><path
         d="m 5584.99,3927.11 c -104.35,0 -189.45,-88.64 -189.45,-197.32 0,-108.69 85.1,-197.33 189.45,-197.33 104.35,0 189.4,88.64 189.4,197.33 0,108.68 -85.05,197.32 -189.4,197.32"
         inkscape:connector-curvature="0"
         id="path24"
         style="fill:#ffffff;fill-opacity:1;fill-rule:evenodd;stroke:none" /><path
         d="m 3498.61,1422.69 c 247.89,-24.67 540.91,273.8 608.1,361.47 0,-142.23 -121.34,-260.98 -233.6,-335.37 -104.54,-609.77 -98.53,-334.75 85.6,-82.06 154.98,212.62 237.06,357.23 279.84,514.59 128.9,474.29 -377.01,898.42 -739.94,-458.63"
         inkscape:connector-curvature="0"
         id="path26"
         style="fill:#ffffff;fill-opacity:1;fill-rule:evenodd;stroke:none" /><path
         d="m 3045.77,1277.84 c -11.74,66.55 -23.5,133.11 -36.55,199.66 -358.87,9.13 -861.27,100.49 -1087.03,408.45 -179.6,-711.4 772.68,-785.6 1123.58,-608.11"
         inkscape:connector-curvature="0"
         id="path28"
         style="fill:#ffffff;fill-opacity:1;fill-rule:evenodd;stroke:none" /><path
         d="m 3382.05,100.812 c 78.31,9.122 156.63,18.282 234.9,27.411 -45.41,64.406 -152.51,139.75 -254.08,129.718 -79.01,-7.812 -162.21,-82.257 -162.21,-157.129 61.35,0 121.36,0 181.39,0"
         inkscape:connector-curvature="0"
         id="path30"
         style="fill:#ffffff;fill-opacity:1;fill-rule:evenodd;stroke:none" /><path
         d="m 4080.25,171.137 c 78.3,9.121 156.63,18.277 234.9,27.41 -45.42,64.406 -152.51,139.746 -254.08,129.715 -79.02,-7.809 -162.21,-82.254 -162.21,-157.125 61.34,0 121.35,0 181.39,0"
         inkscape:connector-curvature="0"
         id="path32"
         style="fill:#ffffff;fill-opacity:1;fill-rule:evenodd;stroke:none" /><path
         d="m 1588.84,201.273 c 78.31,9.122 156.63,18.282 234.9,27.411 -45.41,64.406 -152.51,139.75 -254.08,129.714 -79.01,-7.808 -162.21,-82.253 -162.21,-157.125 61.35,0 121.36,0 181.39,0"
         inkscape:connector-curvature="0"
         id="path34"
         style="fill:#ffffff;fill-opacity:1;fill-rule:evenodd;stroke:none" /><path
         d="m 2432.71,206.297 c 78.3,9.121 156.62,18.281 234.9,27.41 -45.41,64.406 -152.52,139.746 -254.09,129.715 -79.01,-7.809 -162.2,-82.254 -162.2,-157.125 61.34,0 121.35,0 181.39,0"
         inkscape:connector-curvature="0"
         id="path36"
         style="fill:#ffffff;fill-opacity:1;fill-rule:evenodd;stroke:none" /><path
         d="m 5093.35,3793.89 c -73.96,0 -134.4,-60.73 -134.4,-135.2 0,-74.48 60.44,-135.19 134.4,-135.19 74.09,0 134.44,60.71 134.44,135.19 0,12.67 -1.75,24.94 -5.02,36.58 l -143.1,-27.7 76.82,110.43 c -18.84,10.14 -40.33,15.89 -63.14,15.89"
         inkscape:connector-curvature="0"
         id="path38"
         style="fill:#231f20;fill-opacity:1;fill-rule:evenodd;stroke:none" /><path
         d="m 5529.57,3819.77 c -60.5,0 -109.81,-52.85 -109.81,-117.68 0,-64.81 49.31,-117.66 109.81,-117.66 60.46,0 109.77,52.85 109.77,117.66 0,14.51 -2.48,28.42 -6.99,41.27 l -111.84,-21.65 59.16,85.04 c -15.04,8.32 -32.07,13.02 -50.1,13.02"
         inkscape:connector-curvature="0"
         id="path40"
         style="fill:#231f20;fill-opacity:1;fill-rule:evenodd;stroke:none" /><path
         d="m 5044.34,3669.2 c 18.84,0 34.21,-13.97 34.21,-31.09 0,-17.13 -15.37,-31.1 -34.21,-31.1 -18.84,0 -34.2,13.97 -34.2,31.1 0,17.12 15.36,31.09 34.2,31.09"
         inkscape:connector-curvature="0"
         id="path42"
         style="fill:#ffffff;fill-opacity:1;fill-rule:evenodd;stroke:none" /><path
         d="m 5481.39,3705.71 c 17.29,0 31.38,-12.82 31.38,-28.52 0,-15.72 -14.09,-28.53 -31.38,-28.53 -17.27,0 -31.37,12.81 -31.37,28.53 0,15.7 14.1,28.52 31.37,28.52"
         inkscape:connector-curvature="0"
         id="path44"
         style="fill:#ffffff;fill-opacity:1;fill-rule:evenodd;stroke:none" /></g></g></svg>
